<svg width="25" height="25" viewBox="0 0 25 25" fill="none" xmlns="http://www.w3.org/2000/svg">
<path d="M12.3585 4.62421C13.4194 4.62421 14.4368 5.04563 15.1869 5.79578C15.9371 6.54592 16.3585 7.56334 16.3585 8.62421C16.3585 9.68507 15.9371 10.7025 15.1869 11.4526C14.4368 12.2028 13.4194 12.6242 12.3585 12.6242C11.2977 12.6242 10.2802 12.2028 9.53009 11.4526C8.77995 10.7025 8.35852 9.68507 8.35852 8.62421C8.35852 7.56334 8.77995 6.54592 9.53009 5.79578C10.2802 5.04563 11.2977 4.62421 12.3585 4.62421ZM12.3585 14.6242C16.7785 14.6242 20.3585 16.4142 20.3585 18.6242V20.6242H4.35852V18.6242C4.35852 16.4142 7.93852 14.6242 12.3585 14.6242Z" fill="black"/>
</svg>
