<svg width="146" height="57" fill="none" xmlns="http://www.w3.org/2000/svg"><g clip-path="url(#prefix__clip0_1_508)"><path d="M64.854 41.248c17.742 10.198 35.409 12.802 39.459 5.818 4.051-6.985-7.048-20.914-24.79-31.111C61.78 5.757 44.115 3.152 40.063 10.137c-4.05 6.984 7.05 20.913 24.791 31.111z" stroke="#959595" stroke-width=".5" stroke-miterlimit="10"/><path d="M61.816 38.927C76.302 53.35 92.69 60.417 98.418 54.714c5.728-5.703-1.371-22.017-15.858-36.439C68.075 3.854 51.688-3.215 45.96 2.49 40.23 8.19 47.33 24.506 61.816 38.927z" stroke="#CACACA" stroke-width=".5" stroke-miterlimit="10"/><path d="M8.678 34.907c-2.863 0-5.028-.605-6.495-1.816C.728 31.878 0 30.085 0 27.71c0-2.612.74-4.53 2.219-5.753 1.479-1.223 3.662-1.835 6.548-1.835 3.078 0 5.332.606 6.763 1.817 1.432 1.2 2.147 2.969 2.147 5.308 0 2.648-.757 4.59-2.272 5.825-1.515 1.223-3.757 1.834-6.727 1.834zm-.394-6.252h1.091l.526-2.292H7.754l.53 2.292zM18.543 34.587a3.975 3.975 0 01-.25-.944 9.752 9.752 0 01-.072-2.369c.048-.38.113-.695.197-.944.179-.072.352-.19.519-.357.178-.178.328-.457.447-.837.12-.392.179-.938.179-1.639 0-.76-.072-1.33-.215-1.71-.131-.392-.292-.653-.483-.783-.179-.143-.34-.214-.483-.214-.107-.214-.185-.505-.233-.873a9.14 9.14 0 01-.071-1.176c.012-.427.047-.837.107-1.229.06-.403.15-.748.268-1.033.883.036 1.676.042 2.38.018.716-.024 1.426-.06 2.13-.107a99.428 99.428 0 012.325-.125 54.255 54.255 0 012.988-.07c1.682 0 3.102.148 4.259.445 1.157.285 2.033.813 2.63 1.585.608.76.912 1.846.912 3.26 0 1.223-.232 2.202-.697 2.939-.454.736-1.11 1.27-1.969 1.603-.858.32-1.89.48-3.095.48-.763 0-1.372-.059-1.825-.177-.453-.131-.87-.416-1.252-.855l-.376.338c.31.368.686.653 1.127.855.441.19.99.297 1.646.32.108.333.092.501.304 1.075.107.29 0 .356.358 1.069.179.356.489 1.08.358 1.425-.585-.048-2.523-.095-3.56-.166a45.518 45.518 0 00-3.525-.09c-.668 0-1.324.019-1.969.054-.644.036-1.234.072-1.77.107-.526.048-.955.09-1.289.125zm8.32-7.856h1.091l.716-1.193h-2.523l.716 1.194zM37.337 34.587a4.74 4.74 0 01-.232-.944 9.342 9.342 0 01-.108-1.176c0-.416.012-.813.036-1.193a4.3 4.3 0 01.179-.944c.19-.072.376-.19.555-.357.178-.178.328-.457.447-.837.12-.392.895-.938.895-1.639 0-.76-.788-1.33-.93-1.71-.132-.392-.293-.653-.484-.783-.179-.143-.34-.214-.483-.214-.107-.214-.185-.505-.233-.873a9.158 9.158 0 01-.071-1.176c.012-.427.047-.837.107-1.229.06-.403.15-.748.268-1.033l.93.054c.442.012.95.03 1.522.053a1337.082 1337.082 0 003.685.071h1.664c1.253 0 2.642-.017 4.17-.053 1.538-.036 3.065-.083 4.58-.142.06.225.113.552.16.98.048.427.084.902.108 1.424.024.523.036 1.051.036 1.585 0 .535-.018 1.028-.054 1.479-.036.44-.09.784-.16 1.033-.561.071-1.182.119-1.862.142-.68.024-1.371.024-2.075 0a24.647 24.647 0 01-1.968-.142c-.143-.558-.143-1.823 0-2.369h-2.076v1.46h1.664v2.477h-1.682v1.478h2.094c-.143-.558-.143-1.829 0-2.387 1.002-.06 2.028-.089 3.077-.089 1.05 0 2.028.03 2.935.09.035.213.065.557.089 1.032.024.463.036.992.036 1.585 0 .582-.012 1.17-.036 1.764a28.1 28.1 0 01-.072 1.585c-.035.463-.083.796-.143.998a109.14 109.14 0 01-4.08-.16 88.853 88.853 0 00-4.311-.107c-.764 0-1.569.005-2.416.017l-2.433.072c-.775.035-1.461.065-2.057.089-.585.035-1.008.065-1.27.089zM55.38 34.587a4.755 4.755 0 01-.232-.944 9.36 9.36 0 01-.107-1.176c0-.416.012-.813.036-1.193a4.3 4.3 0 01.179-.944c.19-.072.375-.19.554-.357.18-.178.328-.457.448-.837.119-.392.178-.938.178-1.639 0-.76-.071-1.33-.214-1.71-.131-.392-.293-.653-.483-.783-.18-.143-.34-.214-.483-.214-.108-.214-.185-.505-.233-.873a9.158 9.158 0 01-.072-1.176c.012-.427.048-.837.108-1.229.06-.403.149-.748.268-1.033.334.024.722.06 1.163.107l1.378.107c.477.024.918.036 1.324.036.87 0 1.783-.018 2.737-.054.966-.047 2.088-.113 3.364-.196-.19.784-.268 1.425-.233 1.924.048.499.269.932.662 1.3.394.369 1.003.748 1.826 1.14l.955.178-.723-.64c-.751-.357-1.3-.69-1.646-.998a1.66 1.66 0 01-.537-1.14c-.024-.451.054-1.04.233-1.764.513.012 1.091.06 1.735.143.656.083 1.402.125 2.237.125.74 0 1.407-.03 2.004-.09.608-.07 1.157-.13 1.646-.178.107.285.19.63.25 1.033.06.392.09.802.09 1.23 0 .427-.024.825-.072 1.193-.047.368-.119.659-.214.873-.144 0-.31.071-.501.213-.18.131-.334.386-.466.766-.13.38-.196.95-.196 1.71 0 .701.06 1.247.178 1.64.12.38.269.658.448.836.179.167.364.285.555.357.083.249.137.564.16.944.036.38.048.777.036 1.193 0 .404-.03.796-.09 1.176a4.74 4.74 0 01-.232.944c-.477-.06-1.08-.125-1.807-.196-.716-.06-1.461-.09-2.236-.09-1.002 0-1.975.036-2.917.108-.942.07-1.962.13-3.06.178.168-.784.233-1.443.197-1.977a2.693 2.693 0 00-.483-1.408c-.286-.415-.715-.807-1.288-1.175l-1.09-.458.804.885c.513.345.889.707 1.127 1.087.239.368.364.801.376 1.3.024.487-.042 1.069-.197 1.746l-1.45-.178a16.16 16.16 0 00-2.003-.107c-.728 0-1.455.035-2.183.107l-1.807.178zM74.925 34.587a4.748 4.748 0 01-.233-.944 9.36 9.36 0 01-.107-1.176c0-.416.012-.813.036-1.193a4.3 4.3 0 01.179-.944c.19-.072.394-.19.608-.357.215-.166.418-.439.608-.819.203-.38.358-.914.466-1.603.095-.57.119-1.033.071-1.39-.047-.368-.137-.647-.268-.837-.12-.202-.25-.338-.394-.41-.13-.083-.244-.124-.34-.124-.107-.214-.185-.505-.232-.873a9.158 9.158 0 01-.072-1.176c.012-.427.048-.837.108-1.229.06-.403.149-.748.268-1.033.453.048 1.002.101 1.646.16.656.06 1.396.09 2.219.09.668 0 1.371-.012 2.11-.036.752-.024 1.48-.053 2.184-.089a47.228 47.228 0 001.843-.125c-.072.451-.09 1.016-.054 1.693.048.676.233 1.33.555 1.959.011-.653.03-1.306.053-1.96.036-.665.096-1.229.18-1.692.5.024.971.06 1.413.107.441.036.9.071 1.377.107.49.024 1.044.036 1.664.036.406 0 .871-.012 1.396-.036.525-.036 1.032-.071 1.52-.107.49-.047.883-.083 1.182-.107.119.285.208.63.268 1.033.06.392.09.802.09 1.23.011.415-.007.807-.054 1.175-.048.368-.126.66-.233.873-.083 0-.197.041-.34.125-.131.07-.256.207-.376.41-.107.19-.172.462-.196.819-.024.344.024.801.143 1.371.155.689.322 1.23.5 1.621.192.38.383.66.573.837.203.167.4.285.59.357.084.249.138.564.162.944.036.38.047.777.036 1.193 0 .404-.03.796-.09 1.176-.06.38-.137.694-.232.944l-1.79-.178c-.692-.072-1.568-.107-2.63-.107-1.014 0-1.98.035-2.898.107-.907.07-1.605.13-2.094.178-.047-.25-.09-.564-.125-.944a19.775 19.775 0 01-.072-2.369c.012-.38.036-.695.072-.944h.626l-.179-1.995-1.055 3.028-3.471-1.514-.215.48 1.95.873c.275.12.537.25.787.392.25.13.466.309.644.535.18.225.299.534.358.926.072.38.06.89-.035 1.532a60.524 60.524 0 00-.949-.09c-.405-.023-.859-.053-1.36-.088a460.7 460.7 0 00-1.52-.072 31.49 31.49 0 00-1.45-.035 44.52 44.52 0 00-3.363.107 95.85 95.85 0 00-2.058.178zM97.322 34.587a3.985 3.985 0 01-.25-.944A9.753 9.753 0 0197 31.274a5 5 0 01.197-.944c.179-.072.358-.19.537-.357.19-.178.345-.457.465-.837.119-.392.179-.938.179-1.639 0-.76-.072-1.33-.215-1.71-.143-.392-.31-.653-.501-.783-.179-.143-.334-.214-.465-.214-.108-.214-.191-.505-.25-.873-.06-.368-.09-.76-.09-1.176.012-.427.047-.837.107-1.229.072-.403.173-.748.304-1.033.358.024.817.06 1.378.107.56.048 1.151.09 1.771.125a47.1 47.1 0 001.754.036c.596 0 1.21-.012 1.843-.036a64.109 64.109 0 001.789-.125c.561-.047 1.02-.083 1.378-.107.119.285.208.63.268 1.033.06.392.089.802.089 1.23 0 .427-.023.825-.071 1.193-.048.368-.125.659-.233.873-.179 0-.358.071-.536.213-.179.131-.329.386-.448.766s-.179.95-.179 1.71c0 .701.06 1.247.179 1.64.131.38.286.658.465.836.179.167.358.285.537.357.096.249.161.564.197.944a9.692 9.692 0 01-.072 2.369c-.059.38-.143.694-.25.944a97.83 97.83 0 00-1.378-.125c-.56-.036-1.157-.071-1.789-.107a29.73 29.73 0 00-3.578 0c-.597.036-1.17.072-1.718.107-.537.048-.984.09-1.342.125zM137.215 34.712a51.21 51.21 0 01-2.505-.054 88.344 88.344 0 01-2.022-.089 97.846 97.846 0 00-1.968-.053c-.68 0-1.461.017-2.344.053a4.744 4.744 0 01-.232-.926 9.388 9.388 0 01-.108-1.194c0-.415.012-.807.036-1.175a4.34 4.34 0 01.179-.944 1.39 1.39 0 00.644-.392c.179-.202.316-.51.412-.926.095-.416.143-.98.143-1.693 0-.677-.06-1.193-.179-1.55-.107-.356-.251-.605-.429-.747a1.27 1.27 0 00-.591-.268c-.119-.344-.203-.777-.25-1.3a9.141 9.141 0 010-1.621c.059-.558.167-1.033.322-1.425.763.071 1.485.107 2.165.107.691 0 1.401-.012 2.129-.036.727-.035 1.521-.065 2.379-.089a72.167 72.167 0 012.953-.053c2.528 0 4.461.522 5.797 1.567 1.348 1.045 2.022 2.72 2.022 5.023a12.4 12.4 0 01-.215 2.298 6.984 6.984 0 01-.734 2.12c-.346.653-.841 1.235-1.485 1.745-.644.5-1.467.897-2.469 1.194-.99.285-2.207.428-3.65.428zm-.805-6.146h1.091l.716-2.298h-2.523l.716 2.298zM109.011 34.569a4.798 4.798 0 01-.233-.944 9.496 9.496 0 01-.107-1.176c0-.416.012-.813.036-1.193.036-.38.095-.695.179-.944.191-.072.376-.19.554-.357.179-.178.328-.457.448-.837.119-.392.179-.938.179-1.638 0-.76-.072-1.33-.215-1.71-.131-.392-.292-.654-.483-.784-.179-.143-.34-.214-.483-.214-.108-.214-.185-.505-.233-.873a9.108 9.108 0 01-.071-1.175 9.97 9.97 0 01.107-1.23c.06-.403.149-.748.268-1.033.334.024.722.06 1.163.107.454.036.913.072 1.378.107.477.024.919.036 1.324.036.871 0 1.783-.018 2.738-.054.966-.047 2.087-.113 3.363-.196-.191.784-.268 1.425-.232 1.924.047.499.268.932.662 1.3.393.369 1.002.748 1.825 1.14l.955.178-.723-.64c-.751-.357-1.3-.69-1.646-.998-.334-.32-.513-.7-.537-1.14-.023-.452.054-1.04.233-1.764.513.012 1.091.06 1.736.143.656.083 1.401.125 2.236.125.74 0 1.408-.03 2.004-.09.608-.07 1.157-.13 1.646-.178.107.285.191.63.251 1.034.059.391.089.801.089 1.229 0 .427-.024.825-.071 1.193-.048.368-.12.659-.215.873-.143 0-.31.071-.501.213-.179.131-.334.387-.465.767-.132.38-.197.95-.197 1.71 0 .7.059 1.246.179 1.638.119.38.268.66.447.837.179.167.364.285.555.357.083.249.137.564.161.944.036.38.047.777.036 1.193 0 .404-.03.796-.09 1.176-.06.38-.137.694-.233.944a71.57 71.57 0 00-1.807-.196c-.715-.06-1.461-.09-2.236-.09-1.002 0-1.974.036-2.917.108-.942.071-1.962.13-3.059.178.167-.784.232-1.443.197-1.977a2.697 2.697 0 00-.483-1.407c-.287-.416-.716-.808-1.289-1.176l-1.089-.458.803.885c.513.345.889.707 1.127 1.087.239.368.364.802.376 1.3.024.487-.042 1.069-.197 1.746l-1.449-.178a16.188 16.188 0 00-2.004-.107c-.728 0-1.455.035-2.183.107l-1.807.178zM42.683 43.577c-.589 0-1.039-.16-1.35-.48-.417-.39-.626-.955-.626-1.691 0-.752.209-1.316.626-1.692.311-.32.761-.48 1.35-.48.59 0 1.04.16 1.35.48.416.376.624.94.624 1.692 0 .736-.208 1.3-.623 1.692-.312.32-.762.479-1.35.479zm.814-1.102c.2-.251.299-.607.299-1.07 0-.46-.1-.815-.302-1.065-.2-.253-.47-.379-.81-.379a.997.997 0 00-.817.376c-.203.25-.305.607-.305 1.069 0 .462.102.818.305 1.069.203.25.475.375.816.375a.99.99 0 00.814-.376zM51.862 41.987h-.875v1.475h-.856V39.36h1.795c.414 0 .744.106.99.317.246.212.369.54.369.983 0 .484-.123.827-.37 1.027-.245.2-.596.3-1.053.3zm.402-.854c.112-.098.168-.254.168-.468 0-.213-.057-.365-.17-.456-.112-.09-.27-.136-.473-.136h-.802v1.208h.802c.203 0 .362-.05.475-.148zM61.594 41.67h-2.002v1.055h2.282v.737H58.75V39.36h3.022v.727h-2.18v.87h2.001v.713zM70.672 43.462h-.86l-1.684-2.914v2.914h-.802V39.36h.903l1.64 2.864V39.36h.803v4.102zM77.06 43.462h-.802V39.36h1.253l.75 3.226.743-3.226h1.238v4.102h-.802v-2.774c0-.08 0-.191.003-.334.002-.145.002-.256.002-.334l-.78 3.442h-.835l-.775-3.442.003.334.003.334v2.774zM85.77 39.36h.855v4.102h-.855V39.36zM95.558 43.462h-.861l-1.683-2.914v2.914h-.802V39.36h.903l1.64 2.864V39.36h.803v4.102zM102.933 43.462h-1.775V39.36h1.775c.256.004.468.034.638.09.289.094.523.267.702.52.143.204.241.425.293.662.052.238.078.464.078.68 0 .545-.11 1.007-.33 1.385-.298.51-.758.765-1.381.765zm.641-3.055c-.133-.223-.395-.334-.786-.334h-.794v2.677h.794c.406 0 .69-.2.85-.598.088-.22.131-.48.131-.782 0-.418-.065-.739-.195-.963z" fill="#000"/></g><defs><clipPath id="prefix__clip0_1_508"><path fill="#fff" d="M0 0h146v57H0z"/></clipPath></defs></svg>