<?xml version="1.0" standalone="no"?>
<!DOCTYPE svg PUBLIC "-//W3C//DTD SVG 20010904//EN"
 "http://www.w3.org/TR/2001/REC-SVG-20010904/DTD/svg10.dtd">
<svg version="1.0" xmlns="http://www.w3.org/2000/svg"
 width="21.000000pt" height="21.000000pt" viewBox="0 0 21.000000 21.000000"
 preserveAspectRatio="xMidYMid meet">

<g transform="translate(0.000000,21.000000) scale(0.100000,-0.100000)"
fill="#000000" stroke="none">
<path d="M40 145 c0 -51 3 -65 15 -65 10 0 15 11 16 33 l1 32 7 -30 c10 -47
36 -44 48 7 l11 43 1 -42 c1 -31 5 -43 16 -43 12 0 15 14 15 65 0 61 -1 65
-23 65 -20 0 -25 -7 -34 -47 l-9 -48 -13 48 c-10 35 -18 47 -32 47 -17 0 -19
-8 -19 -65z"/>
</g>
</svg>
