<svg width="62" height="62" viewBox="0 0 62 62" fill="none" xmlns="http://www.w3.org/2000/svg">
<rect width="62" height="62" fill="white"/>
<path d="M31.0719 52C23.4605 52 17.7045 50.3205 13.8036 46.9614C9.93455 43.6024 8 38.6297 8 32.0434C8 24.7984 9.96626 19.4799 13.8988 16.088C17.8313 12.696 23.635 11 31.3097 11C39.4919 11 45.4858 12.6795 49.2915 16.0386C53.0972 19.3647 55 24.2715 55 30.759C55 38.1028 52.9862 43.4871 48.9585 46.912C44.9308 50.304 38.9686 52 31.0719 52ZM30.0253 34.6614H32.9271L34.3238 28.3039H28.6153L30.0253 34.6614Z" fill="black"/>
</svg>
